<svg width="25" height="25" viewBox="0 0 25 25" fill="none" xmlns="http://www.w3.org/2000/svg">
<path d="M7.29167 9.37499V7.29166H21.875V9.37499H7.29167ZM7.29167 13.5417V11.4583H21.875V13.5417H7.29167ZM7.29167 17.7083V15.625H21.875V17.7083H7.29167ZM4.16667 9.37499C3.87153 9.37499 3.62413 9.27516 3.42448 9.07551C3.22483 8.87586 3.125 8.62846 3.125 8.33332C3.125 8.03818 3.22483 7.79079 3.42448 7.59114C3.62413 7.39148 3.87153 7.29166 4.16667 7.29166C4.46181 7.29166 4.7092 7.39148 4.90885 7.59114C5.10851 7.79079 5.20833 8.03818 5.20833 8.33332C5.20833 8.62846 5.10851 8.87586 4.90885 9.07551C4.7092 9.27516 4.46181 9.37499 4.16667 9.37499ZM4.16667 13.5417C3.87153 13.5417 3.62413 13.4418 3.42448 13.2422C3.22483 13.0425 3.125 12.7951 3.125 12.5C3.125 12.2049 3.22483 11.9575 3.42448 11.7578C3.62413 11.5581 3.87153 11.4583 4.16667 11.4583C4.46181 11.4583 4.7092 11.5581 4.90885 11.7578C5.10851 11.9575 5.20833 12.2049 5.20833 12.5C5.20833 12.7951 5.10851 13.0425 4.90885 13.2422C4.7092 13.4418 4.46181 13.5417 4.16667 13.5417ZM4.16667 17.7083C3.87153 17.7083 3.62413 17.6085 3.42448 17.4088C3.22483 17.2092 3.125 16.9618 3.125 16.6667C3.125 16.3715 3.22483 16.1241 3.42448 15.9245C3.62413 15.7248 3.87153 15.625 4.16667 15.625C4.46181 15.625 4.7092 15.7248 4.90885 15.9245C5.10851 16.1241 5.20833 16.3715 5.20833 16.6667C5.20833 16.9618 5.10851 17.2092 4.90885 17.4088C4.7092 17.6085 4.46181 17.7083 4.16667 17.7083Z" fill="#79747E"/>
</svg>
